solid exported
	facet normal 1 0 0
		outer loop
			vertex 2.700000047683716 -1.3411045607369942e-9 2.200000047683716
			vertex 2.700000047683716 -0.11999999731779099 2.200000047683716
			vertex 2.700000047683716 -1.3411045607369942e-9 -2.200000047683716
		endloop
	endfacet
	facet normal 1 0 0
		outer loop
			vertex 2.700000047683716 -0.11999999731779099 2.200000047683716
			vertex 2.700000047683716 -0.11999999731779099 -2.200000047683716
			vertex 2.700000047683716 -1.3411045607369942e-9 -2.200000047683716
		endloop
	endfacet
	facet normal -1 0 0
		outer loop
			vertex -2.700000047683716 -1.3411045607369942e-9 -2.200000047683716
			vertex -2.700000047683716 -0.11999999731779099 -2.200000047683716
			vertex -2.700000047683716 -1.3411045607369942e-9 2.200000047683716
		endloop
	endfacet
	facet normal -1 0 0
		outer loop
			vertex -2.700000047683716 -0.11999999731779099 -2.200000047683716
			vertex -2.700000047683716 -0.11999999731779099 2.200000047683716
			vertex -2.700000047683716 -1.3411045607369942e-9 2.200000047683716
		endloop
	endfacet
	facet normal 0 1 0
		outer loop
			vertex -2.700000047683716 -1.3411045607369942e-9 -2.200000047683716
			vertex -2.700000047683716 -1.3411045607369942e-9 2.200000047683716
			vertex 2.700000047683716 -1.3411045607369942e-9 -2.200000047683716
		endloop
	endfacet
	facet normal 0 1 0
		outer loop
			vertex -2.700000047683716 -1.3411045607369942e-9 2.200000047683716
			vertex 2.700000047683716 -1.3411045607369942e-9 2.200000047683716
			vertex 2.700000047683716 -1.3411045607369942e-9 -2.200000047683716
		endloop
	endfacet
	facet normal 0 -1 0
		outer loop
			vertex -2.700000047683716 -0.11999999731779099 2.200000047683716
			vertex -2.700000047683716 -0.11999999731779099 -2.200000047683716
			vertex 2.700000047683716 -0.11999999731779099 2.200000047683716
		endloop
	endfacet
	facet normal 0 -1 0
		outer loop
			vertex -2.700000047683716 -0.11999999731779099 -2.200000047683716
			vertex 2.700000047683716 -0.11999999731779099 -2.200000047683716
			vertex 2.700000047683716 -0.11999999731779099 2.200000047683716
		endloop
	endfacet
	facet normal 0 0 1
		outer loop
			vertex -2.700000047683716 -1.3411045607369942e-9 2.200000047683716
			vertex -2.700000047683716 -0.11999999731779099 2.200000047683716
			vertex 2.700000047683716 -1.3411045607369942e-9 2.200000047683716
		endloop
	endfacet
	facet normal 0 0 1
		outer loop
			vertex -2.700000047683716 -0.11999999731779099 2.200000047683716
			vertex 2.700000047683716 -0.11999999731779099 2.200000047683716
			vertex 2.700000047683716 -1.3411045607369942e-9 2.200000047683716
		endloop
	endfacet
	facet normal 0 0 -1
		outer loop
			vertex 2.700000047683716 -1.3411045607369942e-9 -2.200000047683716
			vertex 2.700000047683716 -0.11999999731779099 -2.200000047683716
			vertex -2.700000047683716 -1.3411045607369942e-9 -2.200000047683716
		endloop
	endfacet
	facet normal 0 0 -1
		outer loop
			vertex 2.700000047683716 -0.11999999731779099 -2.200000047683716
			vertex -2.700000047683716 -0.11999999731779099 -2.200000047683716
			vertex -2.700000047683716 -1.3411045607369942e-9 -2.200000047683716
		endloop
	endfacet
	facet normal 1 0 0
		outer loop
			vertex 2.700000047683716 2.700000047683716 2.200000047683716
			vertex 2.700000047683716 2.5999999046325684 2.200000047683716
			vertex 2.700000047683716 2.700000047683716 -2.200000047683716
		endloop
	endfacet
	facet normal 1 0 0
		outer loop
			vertex 2.700000047683716 2.5999999046325684 2.200000047683716
			vertex 2.700000047683716 2.5999999046325684 -2.200000047683716
			vertex 2.700000047683716 2.700000047683716 -2.200000047683716
		endloop
	endfacet
	facet normal -1 0 0
		outer loop
			vertex -2.700000047683716 2.700000047683716 -2.200000047683716
			vertex -2.700000047683716 2.5999999046325684 -2.200000047683716
			vertex -2.700000047683716 2.700000047683716 2.200000047683716
		endloop
	endfacet
	facet normal -1 0 0
		outer loop
			vertex -2.700000047683716 2.5999999046325684 -2.200000047683716
			vertex -2.700000047683716 2.5999999046325684 2.200000047683716
			vertex -2.700000047683716 2.700000047683716 2.200000047683716
		endloop
	endfacet
	facet normal 0 1 0
		outer loop
			vertex -2.700000047683716 2.700000047683716 -2.200000047683716
			vertex -2.700000047683716 2.700000047683716 2.200000047683716
			vertex 2.700000047683716 2.700000047683716 -2.200000047683716
		endloop
	endfacet
	facet normal 0 1 0
		outer loop
			vertex -2.700000047683716 2.700000047683716 2.200000047683716
			vertex 2.700000047683716 2.700000047683716 2.200000047683716
			vertex 2.700000047683716 2.700000047683716 -2.200000047683716
		endloop
	endfacet
	facet normal 0 -1 0
		outer loop
			vertex -2.700000047683716 2.5999999046325684 2.200000047683716
			vertex -2.700000047683716 2.5999999046325684 -2.200000047683716
			vertex 2.700000047683716 2.5999999046325684 2.200000047683716
		endloop
	endfacet
	facet normal 0 -1 0
		outer loop
			vertex -2.700000047683716 2.5999999046325684 -2.200000047683716
			vertex 2.700000047683716 2.5999999046325684 -2.200000047683716
			vertex 2.700000047683716 2.5999999046325684 2.200000047683716
		endloop
	endfacet
	facet normal 0 0 1
		outer loop
			vertex -2.700000047683716 2.700000047683716 2.200000047683716
			vertex -2.700000047683716 2.5999999046325684 2.200000047683716
			vertex 2.700000047683716 2.700000047683716 2.200000047683716
		endloop
	endfacet
	facet normal 0 0 1
		outer loop
			vertex -2.700000047683716 2.5999999046325684 2.200000047683716
			vertex 2.700000047683716 2.5999999046325684 2.200000047683716
			vertex 2.700000047683716 2.700000047683716 2.200000047683716
		endloop
	endfacet
	facet normal 0 0 -1
		outer loop
			vertex 2.700000047683716 2.700000047683716 -2.200000047683716
			vertex 2.700000047683716 2.5999999046325684 -2.200000047683716
			vertex -2.700000047683716 2.700000047683716 -2.200000047683716
		endloop
	endfacet
	facet normal 0 0 -1
		outer loop
			vertex 2.700000047683716 2.5999999046325684 -2.200000047683716
			vertex -2.700000047683716 2.5999999046325684 -2.200000047683716
			vertex -2.700000047683716 2.700000047683716 -2.200000047683716
		endloop
	endfacet
	facet normal 1 0 0
		outer loop
			vertex 2.700000047683716 2.5999999046325684 -2
			vertex 2.700000047683716 4.7683716530855236e-8 -2
			vertex 2.700000047683716 2.5999999046325684 -2.200000047683716
		endloop
	endfacet
	facet normal 1 0 0
		outer loop
			vertex 2.700000047683716 4.7683716530855236e-8 -2
			vertex 2.700000047683716 4.7683716530855236e-8 -2.200000047683716
			vertex 2.700000047683716 2.5999999046325684 -2.200000047683716
		endloop
	endfacet
	facet normal -1 0 0
		outer loop
			vertex -2.700000047683716 2.5999999046325684 -2.200000047683716
			vertex -2.700000047683716 4.7683716530855236e-8 -2.200000047683716
			vertex -2.700000047683716 2.5999999046325684 -2
		endloop
	endfacet
	facet normal -1 0 0
		outer loop
			vertex -2.700000047683716 4.7683716530855236e-8 -2.200000047683716
			vertex -2.700000047683716 4.7683716530855236e-8 -2
			vertex -2.700000047683716 2.5999999046325684 -2
		endloop
	endfacet
	facet normal 0 1 0
		outer loop
			vertex -2.700000047683716 2.5999999046325684 -2.200000047683716
			vertex -2.700000047683716 2.5999999046325684 -2
			vertex 2.700000047683716 2.5999999046325684 -2.200000047683716
		endloop
	endfacet
	facet normal 0 1 0
		outer loop
			vertex -2.700000047683716 2.5999999046325684 -2
			vertex 2.700000047683716 2.5999999046325684 -2
			vertex 2.700000047683716 2.5999999046325684 -2.200000047683716
		endloop
	endfacet
	facet normal 0 -1 0
		outer loop
			vertex -2.700000047683716 4.7683716530855236e-8 -2
			vertex -2.700000047683716 4.7683716530855236e-8 -2.200000047683716
			vertex 2.700000047683716 4.7683716530855236e-8 -2
		endloop
	endfacet
	facet normal 0 -1 0
		outer loop
			vertex -2.700000047683716 4.7683716530855236e-8 -2.200000047683716
			vertex 2.700000047683716 4.7683716530855236e-8 -2.200000047683716
			vertex 2.700000047683716 4.7683716530855236e-8 -2
		endloop
	endfacet
	facet normal 0 0 1
		outer loop
			vertex -2.700000047683716 2.5999999046325684 -2
			vertex -2.700000047683716 4.7683716530855236e-8 -2
			vertex 2.700000047683716 2.5999999046325684 -2
		endloop
	endfacet
	facet normal 0 0 1
		outer loop
			vertex -2.700000047683716 4.7683716530855236e-8 -2
			vertex 2.700000047683716 4.7683716530855236e-8 -2
			vertex 2.700000047683716 2.5999999046325684 -2
		endloop
	endfacet
	facet normal 0 0 -1
		outer loop
			vertex 2.700000047683716 2.5999999046325684 -2.200000047683716
			vertex 2.700000047683716 4.7683716530855236e-8 -2.200000047683716
			vertex -2.700000047683716 2.5999999046325684 -2.200000047683716
		endloop
	endfacet
	facet normal 0 0 -1
		outer loop
			vertex 2.700000047683716 4.7683716530855236e-8 -2.200000047683716
			vertex -2.700000047683716 4.7683716530855236e-8 -2.200000047683716
			vertex -2.700000047683716 2.5999999046325684 -2.200000047683716
		endloop
	endfacet
	facet normal 1 0 0
		outer loop
			vertex -1.5 2.5999999046325684 2.200000047683716
			vertex -1.5 4.7683716530855236e-8 2.200000047683716
			vertex -1.5 2.5999999046325684 2
		endloop
	endfacet
	facet normal 1 0 0
		outer loop
			vertex -1.5 4.7683716530855236e-8 2.200000047683716
			vertex -1.5 4.7683716530855236e-8 2
			vertex -1.5 2.5999999046325684 2
		endloop
	endfacet
	facet normal -1 0 0
		outer loop
			vertex -2.700000047683716 2.5999999046325684 2
			vertex -2.700000047683716 4.7683716530855236e-8 2
			vertex -2.700000047683716 2.5999999046325684 2.200000047683716
		endloop
	endfacet
	facet normal -1 0 0
		outer loop
			vertex -2.700000047683716 4.7683716530855236e-8 2
			vertex -2.700000047683716 4.7683716530855236e-8 2.200000047683716
			vertex -2.700000047683716 2.5999999046325684 2.200000047683716
		endloop
	endfacet
	facet normal 0 1 0
		outer loop
			vertex -2.700000047683716 2.5999999046325684 2
			vertex -2.700000047683716 2.5999999046325684 2.200000047683716
			vertex -1.5 2.5999999046325684 2
		endloop
	endfacet
	facet normal 0 1 0
		outer loop
			vertex -2.700000047683716 2.5999999046325684 2.200000047683716
			vertex -1.5 2.5999999046325684 2.200000047683716
			vertex -1.5 2.5999999046325684 2
		endloop
	endfacet
	facet normal 0 -1 0
		outer loop
			vertex -2.700000047683716 4.7683716530855236e-8 2.200000047683716
			vertex -2.700000047683716 4.7683716530855236e-8 2
			vertex -1.5 4.7683716530855236e-8 2.200000047683716
		endloop
	endfacet
	facet normal 0 -1 0
		outer loop
			vertex -2.700000047683716 4.7683716530855236e-8 2
			vertex -1.5 4.7683716530855236e-8 2
			vertex -1.5 4.7683716530855236e-8 2.200000047683716
		endloop
	endfacet
	facet normal 0 0 1
		outer loop
			vertex -2.700000047683716 2.5999999046325684 2.200000047683716
			vertex -2.700000047683716 4.7683716530855236e-8 2.200000047683716
			vertex -1.5 2.5999999046325684 2.200000047683716
		endloop
	endfacet
	facet normal 0 0 1
		outer loop
			vertex -2.700000047683716 4.7683716530855236e-8 2.200000047683716
			vertex -1.5 4.7683716530855236e-8 2.200000047683716
			vertex -1.5 2.5999999046325684 2.200000047683716
		endloop
	endfacet
	facet normal 0 0 -1
		outer loop
			vertex -1.5 2.5999999046325684 2
			vertex -1.5 4.7683716530855236e-8 2
			vertex -2.700000047683716 2.5999999046325684 2
		endloop
	endfacet
	facet normal 0 0 -1
		outer loop
			vertex -1.5 4.7683716530855236e-8 2
			vertex -2.700000047683716 4.7683716530855236e-8 2
			vertex -2.700000047683716 2.5999999046325684 2
		endloop
	endfacet
	facet normal 1 0 0
		outer loop
			vertex 2.700000047683716 2.5999999046325684 2.200000047683716
			vertex 2.700000047683716 4.7683716530855236e-8 2.200000047683716
			vertex 2.700000047683716 2.5999999046325684 2
		endloop
	endfacet
	facet normal 1 0 0
		outer loop
			vertex 2.700000047683716 4.7683716530855236e-8 2.200000047683716
			vertex 2.700000047683716 4.7683716530855236e-8 2
			vertex 2.700000047683716 2.5999999046325684 2
		endloop
	endfacet
	facet normal -1 0 0
		outer loop
			vertex -0.5 2.5999999046325684 2
			vertex -0.5 4.7683716530855236e-8 2
			vertex -0.5 2.5999999046325684 2.200000047683716
		endloop
	endfacet
	facet normal -1 0 0
		outer loop
			vertex -0.5 4.7683716530855236e-8 2
			vertex -0.5 4.7683716530855236e-8 2.200000047683716
			vertex -0.5 2.5999999046325684 2.200000047683716
		endloop
	endfacet
	facet normal 0 1 0
		outer loop
			vertex -0.5 2.5999999046325684 2
			vertex -0.5 2.5999999046325684 2.200000047683716
			vertex 2.700000047683716 2.5999999046325684 2
		endloop
	endfacet
	facet normal 0 1 0
		outer loop
			vertex -0.5 2.5999999046325684 2.200000047683716
			vertex 2.700000047683716 2.5999999046325684 2.200000047683716
			vertex 2.700000047683716 2.5999999046325684 2
		endloop
	endfacet
	facet normal 0 -1 0
		outer loop
			vertex -0.5 4.7683716530855236e-8 2.200000047683716
			vertex -0.5 4.7683716530855236e-8 2
			vertex 2.700000047683716 4.7683716530855236e-8 2.200000047683716
		endloop
	endfacet
	facet normal 0 -1 0
		outer loop
			vertex -0.5 4.7683716530855236e-8 2
			vertex 2.700000047683716 4.7683716530855236e-8 2
			vertex 2.700000047683716 4.7683716530855236e-8 2.200000047683716
		endloop
	endfacet
	facet normal 0 0 1
		outer loop
			vertex -0.5 2.5999999046325684 2.200000047683716
			vertex -0.5 4.7683716530855236e-8 2.200000047683716
			vertex 2.700000047683716 2.5999999046325684 2.200000047683716
		endloop
	endfacet
	facet normal 0 0 1
		outer loop
			vertex -0.5 4.7683716530855236e-8 2.200000047683716
			vertex 2.700000047683716 4.7683716530855236e-8 2.200000047683716
			vertex 2.700000047683716 2.5999999046325684 2.200000047683716
		endloop
	endfacet
	facet normal 0 0 -1
		outer loop
			vertex 2.700000047683716 2.5999999046325684 2
			vertex 2.700000047683716 4.7683716530855236e-8 2
			vertex -0.5 2.5999999046325684 2
		endloop
	endfacet
	facet normal 0 0 -1
		outer loop
			vertex 2.700000047683716 4.7683716530855236e-8 2
			vertex -0.5 4.7683716530855236e-8 2
			vertex -0.5 2.5999999046325684 2
		endloop
	endfacet
	facet normal 1 0 0
		outer loop
			vertex -0.5 2.5999999046325684 2.200000047683716
			vertex -0.5 2.049999952316284 2.200000047683716
			vertex -0.5 2.5999999046325684 2
		endloop
	endfacet
	facet normal 1 0 0
		outer loop
			vertex -0.5 2.049999952316284 2.200000047683716
			vertex -0.5 2.049999952316284 2
			vertex -0.5 2.5999999046325684 2
		endloop
	endfacet
	facet normal -1 0 0
		outer loop
			vertex -1.5 2.5999999046325684 2
			vertex -1.5 2.049999952316284 2
			vertex -1.5 2.5999999046325684 2.200000047683716
		endloop
	endfacet
	facet normal -1 0 0
		outer loop
			vertex -1.5 2.049999952316284 2
			vertex -1.5 2.049999952316284 2.200000047683716
			vertex -1.5 2.5999999046325684 2.200000047683716
		endloop
	endfacet
	facet normal 0 1 0
		outer loop
			vertex -1.5 2.5999999046325684 2
			vertex -1.5 2.5999999046325684 2.200000047683716
			vertex -0.5 2.5999999046325684 2
		endloop
	endfacet
	facet normal 0 1 0
		outer loop
			vertex -1.5 2.5999999046325684 2.200000047683716
			vertex -0.5 2.5999999046325684 2.200000047683716
			vertex -0.5 2.5999999046325684 2
		endloop
	endfacet
	facet normal 0 -1 0
		outer loop
			vertex -1.5 2.049999952316284 2.200000047683716
			vertex -1.5 2.049999952316284 2
			vertex -0.5 2.049999952316284 2.200000047683716
		endloop
	endfacet
	facet normal 0 -1 0
		outer loop
			vertex -1.5 2.049999952316284 2
			vertex -0.5 2.049999952316284 2
			vertex -0.5 2.049999952316284 2.200000047683716
		endloop
	endfacet
	facet normal 0 0 1
		outer loop
			vertex -1.5 2.5999999046325684 2.200000047683716
			vertex -1.5 2.049999952316284 2.200000047683716
			vertex -0.5 2.5999999046325684 2.200000047683716
		endloop
	endfacet
	facet normal 0 0 1
		outer loop
			vertex -1.5 2.049999952316284 2.200000047683716
			vertex -0.5 2.049999952316284 2.200000047683716
			vertex -0.5 2.5999999046325684 2.200000047683716
		endloop
	endfacet
	facet normal 0 0 -1
		outer loop
			vertex -0.5 2.5999999046325684 2
			vertex -0.5 2.049999952316284 2
			vertex -1.5 2.5999999046325684 2
		endloop
	endfacet
	facet normal 0 0 -1
		outer loop
			vertex -0.5 2.049999952316284 2
			vertex -1.5 2.049999952316284 2
			vertex -1.5 2.5999999046325684 2
		endloop
	endfacet
	facet normal 1 0 0
		outer loop
			vertex 2.700000047683716 0.8999999761581421 1.25
			vertex 2.700000047683716 1.1920929132713809e-8 1.25
			vertex 2.700000047683716 0.8999999761581421 -0.25
		endloop
	endfacet
	facet normal 1 0 0
		outer loop
			vertex 2.700000047683716 1.1920929132713809e-8 1.25
			vertex 2.700000047683716 1.1920929132713809e-8 -0.25
			vertex 2.700000047683716 0.8999999761581421 -0.25
		endloop
	endfacet
	facet normal -1 0 0
		outer loop
			vertex 2.5 0.8999999761581421 -0.25
			vertex 2.5 1.1920929132713809e-8 -0.25
			vertex 2.5 0.8999999761581421 1.25
		endloop
	endfacet
	facet normal -1 0 0
		outer loop
			vertex 2.5 1.1920929132713809e-8 -0.25
			vertex 2.5 1.1920929132713809e-8 1.25
			vertex 2.5 0.8999999761581421 1.25
		endloop
	endfacet
	facet normal 0 1 0
		outer loop
			vertex 2.5 0.8999999761581421 -0.25
			vertex 2.5 0.8999999761581421 1.25
			vertex 2.700000047683716 0.8999999761581421 -0.25
		endloop
	endfacet
	facet normal 0 1 0
		outer loop
			vertex 2.5 0.8999999761581421 1.25
			vertex 2.700000047683716 0.8999999761581421 1.25
			vertex 2.700000047683716 0.8999999761581421 -0.25
		endloop
	endfacet
	facet normal 0 -1 0
		outer loop
			vertex 2.5 1.1920929132713809e-8 1.25
			vertex 2.5 1.1920929132713809e-8 -0.25
			vertex 2.700000047683716 1.1920929132713809e-8 1.25
		endloop
	endfacet
	facet normal 0 -1 0
		outer loop
			vertex 2.5 1.1920929132713809e-8 -0.25
			vertex 2.700000047683716 1.1920929132713809e-8 -0.25
			vertex 2.700000047683716 1.1920929132713809e-8 1.25
		endloop
	endfacet
	facet normal 0 0 1
		outer loop
			vertex 2.5 0.8999999761581421 1.25
			vertex 2.5 1.1920929132713809e-8 1.25
			vertex 2.700000047683716 0.8999999761581421 1.25
		endloop
	endfacet
	facet normal 0 0 1
		outer loop
			vertex 2.5 1.1920929132713809e-8 1.25
			vertex 2.700000047683716 1.1920929132713809e-8 1.25
			vertex 2.700000047683716 0.8999999761581421 1.25
		endloop
	endfacet
	facet normal 0 0 -1
		outer loop
			vertex 2.700000047683716 0.8999999761581421 -0.25
			vertex 2.700000047683716 1.1920929132713809e-8 -0.25
			vertex 2.5 0.8999999761581421 -0.25
		endloop
	endfacet
	facet normal 0 0 -1
		outer loop
			vertex 2.700000047683716 1.1920929132713809e-8 -0.25
			vertex 2.5 1.1920929132713809e-8 -0.25
			vertex 2.5 0.8999999761581421 -0.25
		endloop
	endfacet
	facet normal 1 0 0
		outer loop
			vertex 2.700000047683716 2.5999999046325684 1.25
			vertex 2.700000047683716 2.0999999046325684 1.25
			vertex 2.700000047683716 2.5999999046325684 -0.25
		endloop
	endfacet
	facet normal 1 0 0
		outer loop
			vertex 2.700000047683716 2.0999999046325684 1.25
			vertex 2.700000047683716 2.0999999046325684 -0.25
			vertex 2.700000047683716 2.5999999046325684 -0.25
		endloop
	endfacet
	facet normal -1 0 0
		outer loop
			vertex 2.5 2.5999999046325684 -0.25
			vertex 2.5 2.0999999046325684 -0.25
			vertex 2.5 2.5999999046325684 1.25
		endloop
	endfacet
	facet normal -1 0 0
		outer loop
			vertex 2.5 2.0999999046325684 -0.25
			vertex 2.5 2.0999999046325684 1.25
			vertex 2.5 2.5999999046325684 1.25
		endloop
	endfacet
	facet normal 0 1 0
		outer loop
			vertex 2.5 2.5999999046325684 -0.25
			vertex 2.5 2.5999999046325684 1.25
			vertex 2.700000047683716 2.5999999046325684 -0.25
		endloop
	endfacet
	facet normal 0 1 0
		outer loop
			vertex 2.5 2.5999999046325684 1.25
			vertex 2.700000047683716 2.5999999046325684 1.25
			vertex 2.700000047683716 2.5999999046325684 -0.25
		endloop
	endfacet
	facet normal 0 -1 0
		outer loop
			vertex 2.5 2.0999999046325684 1.25
			vertex 2.5 2.0999999046325684 -0.25
			vertex 2.700000047683716 2.0999999046325684 1.25
		endloop
	endfacet
	facet normal 0 -1 0
		outer loop
			vertex 2.5 2.0999999046325684 -0.25
			vertex 2.700000047683716 2.0999999046325684 -0.25
			vertex 2.700000047683716 2.0999999046325684 1.25
		endloop
	endfacet
	facet normal 0 0 1
		outer loop
			vertex 2.5 2.5999999046325684 1.25
			vertex 2.5 2.0999999046325684 1.25
			vertex 2.700000047683716 2.5999999046325684 1.25
		endloop
	endfacet
	facet normal 0 0 1
		outer loop
			vertex 2.5 2.0999999046325684 1.25
			vertex 2.700000047683716 2.0999999046325684 1.25
			vertex 2.700000047683716 2.5999999046325684 1.25
		endloop
	endfacet
	facet normal 0 0 -1
		outer loop
			vertex 2.700000047683716 2.5999999046325684 -0.25
			vertex 2.700000047683716 2.0999999046325684 -0.25
			vertex 2.5 2.5999999046325684 -0.25
		endloop
	endfacet
	facet normal 0 0 -1
		outer loop
			vertex 2.700000047683716 2.0999999046325684 -0.25
			vertex 2.5 2.0999999046325684 -0.25
			vertex 2.5 2.5999999046325684 -0.25
		endloop
	endfacet
	facet normal 1 0 0
		outer loop
			vertex 2.700000047683716 2.5999999046325684 2.200000047683716
			vertex 2.700000047683716 4.7683716530855236e-8 2.200000047683716
			vertex 2.700000047683716 2.5999999046325684 1.25
		endloop
	endfacet
	facet normal 1 0 0
		outer loop
			vertex 2.700000047683716 4.7683716530855236e-8 2.200000047683716
			vertex 2.700000047683716 4.7683716530855236e-8 1.25
			vertex 2.700000047683716 2.5999999046325684 1.25
		endloop
	endfacet
	facet normal -1 0 0
		outer loop
			vertex 2.5 2.5999999046325684 1.25
			vertex 2.5 4.7683716530855236e-8 1.25
			vertex 2.5 2.5999999046325684 2.200000047683716
		endloop
	endfacet
	facet normal -1 0 0
		outer loop
			vertex 2.5 4.7683716530855236e-8 1.25
			vertex 2.5 4.7683716530855236e-8 2.200000047683716
			vertex 2.5 2.5999999046325684 2.200000047683716
		endloop
	endfacet
	facet normal 0 1 0
		outer loop
			vertex 2.5 2.5999999046325684 1.25
			vertex 2.5 2.5999999046325684 2.200000047683716
			vertex 2.700000047683716 2.5999999046325684 1.25
		endloop
	endfacet
	facet normal 0 1 0
		outer loop
			vertex 2.5 2.5999999046325684 2.200000047683716
			vertex 2.700000047683716 2.5999999046325684 2.200000047683716
			vertex 2.700000047683716 2.5999999046325684 1.25
		endloop
	endfacet
	facet normal 0 -1 0
		outer loop
			vertex 2.5 4.7683716530855236e-8 2.200000047683716
			vertex 2.5 4.7683716530855236e-8 1.25
			vertex 2.700000047683716 4.7683716530855236e-8 2.200000047683716
		endloop
	endfacet
	facet normal 0 -1 0
		outer loop
			vertex 2.5 4.7683716530855236e-8 1.25
			vertex 2.700000047683716 4.7683716530855236e-8 1.25
			vertex 2.700000047683716 4.7683716530855236e-8 2.200000047683716
		endloop
	endfacet
	facet normal 0 0 1
		outer loop
			vertex 2.5 2.5999999046325684 2.200000047683716
			vertex 2.5 4.7683716530855236e-8 2.200000047683716
			vertex 2.700000047683716 2.5999999046325684 2.200000047683716
		endloop
	endfacet
	facet normal 0 0 1
		outer loop
			vertex 2.5 4.7683716530855236e-8 2.200000047683716
			vertex 2.700000047683716 4.7683716530855236e-8 2.200000047683716
			vertex 2.700000047683716 2.5999999046325684 2.200000047683716
		endloop
	endfacet
	facet normal 0 0 -1
		outer loop
			vertex 2.700000047683716 2.5999999046325684 1.25
			vertex 2.700000047683716 4.7683716530855236e-8 1.25
			vertex 2.5 2.5999999046325684 1.25
		endloop
	endfacet
	facet normal 0 0 -1
		outer loop
			vertex 2.700000047683716 4.7683716530855236e-8 1.25
			vertex 2.5 4.7683716530855236e-8 1.25
			vertex 2.5 2.5999999046325684 1.25
		endloop
	endfacet
	facet normal 1 0 0
		outer loop
			vertex 2.700000047683716 2.5999999046325684 -0.2499999701976776
			vertex 2.700000047683716 4.7683716530855236e-8 -0.2499999701976776
			vertex 2.700000047683716 2.5999999046325684 -2.200000047683716
		endloop
	endfacet
	facet normal 1 0 0
		outer loop
			vertex 2.700000047683716 4.7683716530855236e-8 -0.2499999701976776
			vertex 2.700000047683716 4.7683716530855236e-8 -2.200000047683716
			vertex 2.700000047683716 2.5999999046325684 -2.200000047683716
		endloop
	endfacet
	facet normal -1 0 0
		outer loop
			vertex 2.5 2.5999999046325684 -2.200000047683716
			vertex 2.5 4.7683716530855236e-8 -2.200000047683716
			vertex 2.5 2.5999999046325684 -0.2499999701976776
		endloop
	endfacet
	facet normal -1 0 0
		outer loop
			vertex 2.5 4.7683716530855236e-8 -2.200000047683716
			vertex 2.5 4.7683716530855236e-8 -0.2499999701976776
			vertex 2.5 2.5999999046325684 -0.2499999701976776
		endloop
	endfacet
	facet normal 0 1 0
		outer loop
			vertex 2.5 2.5999999046325684 -2.200000047683716
			vertex 2.5 2.5999999046325684 -0.2499999701976776
			vertex 2.700000047683716 2.5999999046325684 -2.200000047683716
		endloop
	endfacet
	facet normal 0 1 0
		outer loop
			vertex 2.5 2.5999999046325684 -0.2499999701976776
			vertex 2.700000047683716 2.5999999046325684 -0.2499999701976776
			vertex 2.700000047683716 2.5999999046325684 -2.200000047683716
		endloop
	endfacet
	facet normal 0 -1 0
		outer loop
			vertex 2.5 4.7683716530855236e-8 -0.2499999701976776
			vertex 2.5 4.7683716530855236e-8 -2.200000047683716
			vertex 2.700000047683716 4.7683716530855236e-8 -0.2499999701976776
		endloop
	endfacet
	facet normal 0 -1 0
		outer loop
			vertex 2.5 4.7683716530855236e-8 -2.200000047683716
			vertex 2.700000047683716 4.7683716530855236e-8 -2.200000047683716
			vertex 2.700000047683716 4.7683716530855236e-8 -0.2499999701976776
		endloop
	endfacet
	facet normal 0 0 1
		outer loop
			vertex 2.5 2.5999999046325684 -0.2499999701976776
			vertex 2.5 4.7683716530855236e-8 -0.2499999701976776
			vertex 2.700000047683716 2.5999999046325684 -0.2499999701976776
		endloop
	endfacet
	facet normal 0 0 1
		outer loop
			vertex 2.5 4.7683716530855236e-8 -0.2499999701976776
			vertex 2.700000047683716 4.7683716530855236e-8 -0.2499999701976776
			vertex 2.700000047683716 2.5999999046325684 -0.2499999701976776
		endloop
	endfacet
	facet normal 0 0 -1
		outer loop
			vertex 2.700000047683716 2.5999999046325684 -2.200000047683716
			vertex 2.700000047683716 4.7683716530855236e-8 -2.200000047683716
			vertex 2.5 2.5999999046325684 -2.200000047683716
		endloop
	endfacet
	facet normal 0 0 -1
		outer loop
			vertex 2.700000047683716 4.7683716530855236e-8 -2.200000047683716
			vertex 2.5 4.7683716530855236e-8 -2.200000047683716
			vertex 2.5 2.5999999046325684 -2.200000047683716
		endloop
	endfacet
	facet normal 1 0 0
		outer loop
			vertex -2.5 2.5999999046325684 2.200000047683716
			vertex -2.5 4.7683716530855236e-8 2.200000047683716
			vertex -2.5 2.5999999046325684 -2.200000047683716
		endloop
	endfacet
	facet normal 1 0 0
		outer loop
			vertex -2.5 4.7683716530855236e-8 2.200000047683716
			vertex -2.5 4.7683716530855236e-8 -2.200000047683716
			vertex -2.5 2.5999999046325684 -2.200000047683716
		endloop
	endfacet
	facet normal -1 0 0
		outer loop
			vertex -2.700000047683716 2.5999999046325684 -2.200000047683716
			vertex -2.700000047683716 4.7683716530855236e-8 -2.200000047683716
			vertex -2.700000047683716 2.5999999046325684 2.200000047683716
		endloop
	endfacet
	facet normal -1 0 0
		outer loop
			vertex -2.700000047683716 4.7683716530855236e-8 -2.200000047683716
			vertex -2.700000047683716 4.7683716530855236e-8 2.200000047683716
			vertex -2.700000047683716 2.5999999046325684 2.200000047683716
		endloop
	endfacet
	facet normal 0 1 0
		outer loop
			vertex -2.700000047683716 2.5999999046325684 -2.200000047683716
			vertex -2.700000047683716 2.5999999046325684 2.200000047683716
			vertex -2.5 2.5999999046325684 -2.200000047683716
		endloop
	endfacet
	facet normal 0 1 0
		outer loop
			vertex -2.700000047683716 2.5999999046325684 2.200000047683716
			vertex -2.5 2.5999999046325684 2.200000047683716
			vertex -2.5 2.5999999046325684 -2.200000047683716
		endloop
	endfacet
	facet normal 0 -1 0
		outer loop
			vertex -2.700000047683716 4.7683716530855236e-8 2.200000047683716
			vertex -2.700000047683716 4.7683716530855236e-8 -2.200000047683716
			vertex -2.5 4.7683716530855236e-8 2.200000047683716
		endloop
	endfacet
	facet normal 0 -1 0
		outer loop
			vertex -2.700000047683716 4.7683716530855236e-8 -2.200000047683716
			vertex -2.5 4.7683716530855236e-8 -2.200000047683716
			vertex -2.5 4.7683716530855236e-8 2.200000047683716
		endloop
	endfacet
	facet normal 0 0 1
		outer loop
			vertex -2.700000047683716 2.5999999046325684 2.200000047683716
			vertex -2.700000047683716 4.7683716530855236e-8 2.200000047683716
			vertex -2.5 2.5999999046325684 2.200000047683716
		endloop
	endfacet
	facet normal 0 0 1
		outer loop
			vertex -2.700000047683716 4.7683716530855236e-8 2.200000047683716
			vertex -2.5 4.7683716530855236e-8 2.200000047683716
			vertex -2.5 2.5999999046325684 2.200000047683716
		endloop
	endfacet
	facet normal 0 0 -1
		outer loop
			vertex -2.5 2.5999999046325684 -2.200000047683716
			vertex -2.5 4.7683716530855236e-8 -2.200000047683716
			vertex -2.700000047683716 2.5999999046325684 -2.200000047683716
		endloop
	endfacet
	facet normal 0 0 -1
		outer loop
			vertex -2.5 4.7683716530855236e-8 -2.200000047683716
			vertex -2.700000047683716 4.7683716530855236e-8 -2.200000047683716
			vertex -2.700000047683716 2.5999999046325684 -2.200000047683716
		endloop
	endfacet
	facet normal 1 0 0
		outer loop
			vertex -0.7999999523162842 0.7900000214576721 -0.4000000059604645
			vertex -0.7999999523162842 0.7099999785423279 -0.4000000059604645
			vertex -0.7999999523162842 0.7900000214576721 -1.2000000476837158
		endloop
	endfacet
	facet normal 1 0 0
		outer loop
			vertex -0.7999999523162842 0.7099999785423279 -0.4000000059604645
			vertex -0.7999999523162842 0.7099999785423279 -1.2000000476837158
			vertex -0.7999999523162842 0.7900000214576721 -1.2000000476837158
		endloop
	endfacet
	facet normal -1 0 0
		outer loop
			vertex -2 0.7900000214576721 -1.2000000476837158
			vertex -2 0.7099999785423279 -1.2000000476837158
			vertex -2 0.7900000214576721 -0.4000000059604645
		endloop
	endfacet
	facet normal -1 0 0
		outer loop
			vertex -2 0.7099999785423279 -1.2000000476837158
			vertex -2 0.7099999785423279 -0.4000000059604645
			vertex -2 0.7900000214576721 -0.4000000059604645
		endloop
	endfacet
	facet normal 0 1 0
		outer loop
			vertex -2 0.7900000214576721 -1.2000000476837158
			vertex -2 0.7900000214576721 -0.4000000059604645
			vertex -0.7999999523162842 0.7900000214576721 -1.2000000476837158
		endloop
	endfacet
	facet normal 0 1 0
		outer loop
			vertex -2 0.7900000214576721 -0.4000000059604645
			vertex -0.7999999523162842 0.7900000214576721 -0.4000000059604645
			vertex -0.7999999523162842 0.7900000214576721 -1.2000000476837158
		endloop
	endfacet
	facet normal 0 -1 0
		outer loop
			vertex -2 0.7099999785423279 -0.4000000059604645
			vertex -2 0.7099999785423279 -1.2000000476837158
			vertex -0.7999999523162842 0.7099999785423279 -0.4000000059604645
		endloop
	endfacet
	facet normal 0 -1 0
		outer loop
			vertex -2 0.7099999785423279 -1.2000000476837158
			vertex -0.7999999523162842 0.7099999785423279 -1.2000000476837158
			vertex -0.7999999523162842 0.7099999785423279 -0.4000000059604645
		endloop
	endfacet
	facet normal 0 0 1
		outer loop
			vertex -2 0.7900000214576721 -0.4000000059604645
			vertex -2 0.7099999785423279 -0.4000000059604645
			vertex -0.7999999523162842 0.7900000214576721 -0.4000000059604645
		endloop
	endfacet
	facet normal 0 0 1
		outer loop
			vertex -2 0.7099999785423279 -0.4000000059604645
			vertex -0.7999999523162842 0.7099999785423279 -0.4000000059604645
			vertex -0.7999999523162842 0.7900000214576721 -0.4000000059604645
		endloop
	endfacet
	facet normal 0 0 -1
		outer loop
			vertex -0.7999999523162842 0.7900000214576721 -1.2000000476837158
			vertex -0.7999999523162842 0.7099999785423279 -1.2000000476837158
			vertex -2 0.7900000214576721 -1.2000000476837158
		endloop
	endfacet
	facet normal 0 0 -1
		outer loop
			vertex -0.7999999523162842 0.7099999785423279 -1.2000000476837158
			vertex -2 0.7099999785423279 -1.2000000476837158
			vertex -2 0.7900000214576721 -1.2000000476837158
		endloop
	endfacet
	facet normal 1 0 0
		outer loop
			vertex -1.9199999570846558 0.75 -1.1200000047683716
			vertex -1.9199999570846558 0 -1.1200000047683716
			vertex -1.9199999570846558 0.75 -1.1799999475479126
		endloop
	endfacet
	facet normal 1 0 0
		outer loop
			vertex -1.9199999570846558 0 -1.1200000047683716
			vertex -1.9199999570846558 0 -1.1799999475479126
			vertex -1.9199999570846558 0.75 -1.1799999475479126
		endloop
	endfacet
	facet normal -1 0 0
		outer loop
			vertex -1.9800000190734863 0.75 -1.1799999475479126
			vertex -1.9800000190734863 0 -1.1799999475479126
			vertex -1.9800000190734863 0.75 -1.1200000047683716
		endloop
	endfacet
	facet normal -1 0 0
		outer loop
			vertex -1.9800000190734863 0 -1.1799999475479126
			vertex -1.9800000190734863 0 -1.1200000047683716
			vertex -1.9800000190734863 0.75 -1.1200000047683716
		endloop
	endfacet
	facet normal 0 1 0
		outer loop
			vertex -1.9800000190734863 0.75 -1.1799999475479126
			vertex -1.9800000190734863 0.75 -1.1200000047683716
			vertex -1.9199999570846558 0.75 -1.1799999475479126
		endloop
	endfacet
	facet normal 0 1 0
		outer loop
			vertex -1.9800000190734863 0.75 -1.1200000047683716
			vertex -1.9199999570846558 0.75 -1.1200000047683716
			vertex -1.9199999570846558 0.75 -1.1799999475479126
		endloop
	endfacet
	facet normal 0 -1 0
		outer loop
			vertex -1.9800000190734863 0 -1.1200000047683716
			vertex -1.9800000190734863 0 -1.1799999475479126
			vertex -1.9199999570846558 0 -1.1200000047683716
		endloop
	endfacet
	facet normal 0 -1 0
		outer loop
			vertex -1.9800000190734863 0 -1.1799999475479126
			vertex -1.9199999570846558 0 -1.1799999475479126
			vertex -1.9199999570846558 0 -1.1200000047683716
		endloop
	endfacet
	facet normal 0 0 1
		outer loop
			vertex -1.9800000190734863 0.75 -1.1200000047683716
			vertex -1.9800000190734863 0 -1.1200000047683716
			vertex -1.9199999570846558 0.75 -1.1200000047683716
		endloop
	endfacet
	facet normal 0 0 1
		outer loop
			vertex -1.9800000190734863 0 -1.1200000047683716
			vertex -1.9199999570846558 0 -1.1200000047683716
			vertex -1.9199999570846558 0.75 -1.1200000047683716
		endloop
	endfacet
	facet normal 0 0 -1
		outer loop
			vertex -1.9199999570846558 0.75 -1.1799999475479126
			vertex -1.9199999570846558 0 -1.1799999475479126
			vertex -1.9800000190734863 0.75 -1.1799999475479126
		endloop
	endfacet
	facet normal 0 0 -1
		outer loop
			vertex -1.9199999570846558 0 -1.1799999475479126
			vertex -1.9800000190734863 0 -1.1799999475479126
			vertex -1.9800000190734863 0.75 -1.1799999475479126
		endloop
	endfacet
	facet normal 1 0 0
		outer loop
			vertex -0.8199999928474426 0.75 -1.1200000047683716
			vertex -0.8199999928474426 0 -1.1200000047683716
			vertex -0.8199999928474426 0.75 -1.1799999475479126
		endloop
	endfacet
	facet normal 1 0 0
		outer loop
			vertex -0.8199999928474426 0 -1.1200000047683716
			vertex -0.8199999928474426 0 -1.1799999475479126
			vertex -0.8199999928474426 0.75 -1.1799999475479126
		endloop
	endfacet
	facet normal -1 0 0
		outer loop
			vertex -0.8799999952316284 0.75 -1.1799999475479126
			vertex -0.8799999952316284 0 -1.1799999475479126
			vertex -0.8799999952316284 0.75 -1.1200000047683716
		endloop
	endfacet
	facet normal -1 0 0
		outer loop
			vertex -0.8799999952316284 0 -1.1799999475479126
			vertex -0.8799999952316284 0 -1.1200000047683716
			vertex -0.8799999952316284 0.75 -1.1200000047683716
		endloop
	endfacet
	facet normal 0 1 0
		outer loop
			vertex -0.8799999952316284 0.75 -1.1799999475479126
			vertex -0.8799999952316284 0.75 -1.1200000047683716
			vertex -0.8199999928474426 0.75 -1.1799999475479126
		endloop
	endfacet
	facet normal 0 1 0
		outer loop
			vertex -0.8799999952316284 0.75 -1.1200000047683716
			vertex -0.8199999928474426 0.75 -1.1200000047683716
			vertex -0.8199999928474426 0.75 -1.1799999475479126
		endloop
	endfacet
	facet normal 0 -1 0
		outer loop
			vertex -0.8799999952316284 0 -1.1200000047683716
			vertex -0.8799999952316284 0 -1.1799999475479126
			vertex -0.8199999928474426 0 -1.1200000047683716
		endloop
	endfacet
	facet normal 0 -1 0
		outer loop
			vertex -0.8799999952316284 0 -1.1799999475479126
			vertex -0.8199999928474426 0 -1.1799999475479126
			vertex -0.8199999928474426 0 -1.1200000047683716
		endloop
	endfacet
	facet normal 0 0 1
		outer loop
			vertex -0.8799999952316284 0.75 -1.1200000047683716
			vertex -0.8799999952316284 0 -1.1200000047683716
			vertex -0.8199999928474426 0.75 -1.1200000047683716
		endloop
	endfacet
	facet normal 0 0 1
		outer loop
			vertex -0.8799999952316284 0 -1.1200000047683716
			vertex -0.8199999928474426 0 -1.1200000047683716
			vertex -0.8199999928474426 0.75 -1.1200000047683716
		endloop
	endfacet
	facet normal 0 0 -1
		outer loop
			vertex -0.8199999928474426 0.75 -1.1799999475479126
			vertex -0.8199999928474426 0 -1.1799999475479126
			vertex -0.8799999952316284 0.75 -1.1799999475479126
		endloop
	endfacet
	facet normal 0 0 -1
		outer loop
			vertex -0.8199999928474426 0 -1.1799999475479126
			vertex -0.8799999952316284 0 -1.1799999475479126
			vertex -0.8799999952316284 0.75 -1.1799999475479126
		endloop
	endfacet
	facet normal 1 0 0
		outer loop
			vertex -1.9199999570846558 0.75 -0.41999998688697815
			vertex -1.9199999570846558 0 -0.41999998688697815
			vertex -1.9199999570846558 0.75 -0.47999998927116394
		endloop
	endfacet
	facet normal 1 0 0
		outer loop
			vertex -1.9199999570846558 0 -0.41999998688697815
			vertex -1.9199999570846558 0 -0.47999998927116394
			vertex -1.9199999570846558 0.75 -0.47999998927116394
		endloop
	endfacet
	facet normal -1 0 0
		outer loop
			vertex -1.9800000190734863 0.75 -0.47999998927116394
			vertex -1.9800000190734863 0 -0.47999998927116394
			vertex -1.9800000190734863 0.75 -0.41999998688697815
		endloop
	endfacet
	facet normal -1 0 0
		outer loop
			vertex -1.9800000190734863 0 -0.47999998927116394
			vertex -1.9800000190734863 0 -0.41999998688697815
			vertex -1.9800000190734863 0.75 -0.41999998688697815
		endloop
	endfacet
	facet normal 0 1 0
		outer loop
			vertex -1.9800000190734863 0.75 -0.47999998927116394
			vertex -1.9800000190734863 0.75 -0.41999998688697815
			vertex -1.9199999570846558 0.75 -0.47999998927116394
		endloop
	endfacet
	facet normal 0 1 0
		outer loop
			vertex -1.9800000190734863 0.75 -0.41999998688697815
			vertex -1.9199999570846558 0.75 -0.41999998688697815
			vertex -1.9199999570846558 0.75 -0.47999998927116394
		endloop
	endfacet
	facet normal 0 -1 0
		outer loop
			vertex -1.9800000190734863 0 -0.41999998688697815
			vertex -1.9800000190734863 0 -0.47999998927116394
			vertex -1.9199999570846558 0 -0.41999998688697815
		endloop
	endfacet
	facet normal 0 -1 0
		outer loop
			vertex -1.9800000190734863 0 -0.47999998927116394
			vertex -1.9199999570846558 0 -0.47999998927116394
			vertex -1.9199999570846558 0 -0.41999998688697815
		endloop
	endfacet
	facet normal 0 0 1
		outer loop
			vertex -1.9800000190734863 0.75 -0.41999998688697815
			vertex -1.9800000190734863 0 -0.41999998688697815
			vertex -1.9199999570846558 0.75 -0.41999998688697815
		endloop
	endfacet
	facet normal 0 0 1
		outer loop
			vertex -1.9800000190734863 0 -0.41999998688697815
			vertex -1.9199999570846558 0 -0.41999998688697815
			vertex -1.9199999570846558 0.75 -0.41999998688697815
		endloop
	endfacet
	facet normal 0 0 -1
		outer loop
			vertex -1.9199999570846558 0.75 -0.47999998927116394
			vertex -1.9199999570846558 0 -0.47999998927116394
			vertex -1.9800000190734863 0.75 -0.47999998927116394
		endloop
	endfacet
	facet normal 0 0 -1
		outer loop
			vertex -1.9199999570846558 0 -0.47999998927116394
			vertex -1.9800000190734863 0 -0.47999998927116394
			vertex -1.9800000190734863 0.75 -0.47999998927116394
		endloop
	endfacet
	facet normal 1 0 0
		outer loop
			vertex -0.8199999928474426 0.75 -0.41999998688697815
			vertex -0.8199999928474426 0 -0.41999998688697815
			vertex -0.8199999928474426 0.75 -0.47999998927116394
		endloop
	endfacet
	facet normal 1 0 0
		outer loop
			vertex -0.8199999928474426 0 -0.41999998688697815
			vertex -0.8199999928474426 0 -0.47999998927116394
			vertex -0.8199999928474426 0.75 -0.47999998927116394
		endloop
	endfacet
	facet normal -1 0 0
		outer loop
			vertex -0.8799999952316284 0.75 -0.47999998927116394
			vertex -0.8799999952316284 0 -0.47999998927116394
			vertex -0.8799999952316284 0.75 -0.41999998688697815
		endloop
	endfacet
	facet normal -1 0 0
		outer loop
			vertex -0.8799999952316284 0 -0.47999998927116394
			vertex -0.8799999952316284 0 -0.41999998688697815
			vertex -0.8799999952316284 0.75 -0.41999998688697815
		endloop
	endfacet
	facet normal 0 1 0
		outer loop
			vertex -0.8799999952316284 0.75 -0.47999998927116394
			vertex -0.8799999952316284 0.75 -0.41999998688697815
			vertex -0.8199999928474426 0.75 -0.47999998927116394
		endloop
	endfacet
	facet normal 0 1 0
		outer loop
			vertex -0.8799999952316284 0.75 -0.41999998688697815
			vertex -0.8199999928474426 0.75 -0.41999998688697815
			vertex -0.8199999928474426 0.75 -0.47999998927116394
		endloop
	endfacet
	facet normal 0 -1 0
		outer loop
			vertex -0.8799999952316284 0 -0.41999998688697815
			vertex -0.8799999952316284 0 -0.47999998927116394
			vertex -0.8199999928474426 0 -0.41999998688697815
		endloop
	endfacet
	facet normal 0 -1 0
		outer loop
			vertex -0.8799999952316284 0 -0.47999998927116394
			vertex -0.8199999928474426 0 -0.47999998927116394
			vertex -0.8199999928474426 0 -0.41999998688697815
		endloop
	endfacet
	facet normal 0 0 1
		outer loop
			vertex -0.8799999952316284 0.75 -0.41999998688697815
			vertex -0.8799999952316284 0 -0.41999998688697815
			vertex -0.8199999928474426 0.75 -0.41999998688697815
		endloop
	endfacet
	facet normal 0 0 1
		outer loop
			vertex -0.8799999952316284 0 -0.41999998688697815
			vertex -0.8199999928474426 0 -0.41999998688697815
			vertex -0.8199999928474426 0.75 -0.41999998688697815
		endloop
	endfacet
	facet normal 0 0 -1
		outer loop
			vertex -0.8199999928474426 0.75 -0.47999998927116394
			vertex -0.8199999928474426 0 -0.47999998927116394
			vertex -0.8799999952316284 0.75 -0.47999998927116394
		endloop
	endfacet
	facet normal 0 0 -1
		outer loop
			vertex -0.8199999928474426 0 -0.47999998927116394
			vertex -0.8799999952316284 0 -0.47999998927116394
			vertex -0.8799999952316284 0.75 -0.47999998927116394
		endloop
	endfacet
endsolid exported
