ply
format ascii 1.0
element vertex 384
property float x
property float y
property float z
property float nx
property float ny
property float nz
property float s
property float t
element face 192
property list uchar int vertex_index
end_header
2.700000047683716 -1.3411045607369942e-9 2.200000047683716 1 0 0 0 1
2.700000047683716 -1.3411045607369942e-9 -2.200000047683716 1 0 0 1 1
2.700000047683716 -0.11999999731779099 2.200000047683716 1 0 0 0 0
2.700000047683716 -0.11999999731779099 -2.200000047683716 1 0 0 1 0
-2.700000047683716 -1.3411045607369942e-9 -2.200000047683716 -1 0 0 0 1
-2.700000047683716 -1.3411045607369942e-9 2.200000047683716 -1 0 0 1 1
-2.700000047683716 -0.11999999731779099 -2.200000047683716 -1 0 0 0 0
-2.700000047683716 -0.11999999731779099 2.200000047683716 -1 0 0 1 0
-2.700000047683716 -1.3411045607369942e-9 -2.200000047683716 0 1 0 0 1
2.700000047683716 -1.3411045607369942e-9 -2.200000047683716 0 1 0 1 1
-2.700000047683716 -1.3411045607369942e-9 2.200000047683716 0 1 0 0 0
2.700000047683716 -1.3411045607369942e-9 2.200000047683716 0 1 0 1 0
-2.700000047683716 -0.11999999731779099 2.200000047683716 0 -1 0 0 1
2.700000047683716 -0.11999999731779099 2.200000047683716 0 -1 0 1 1
-2.700000047683716 -0.11999999731779099 -2.200000047683716 0 -1 0 0 0
2.700000047683716 -0.11999999731779099 -2.200000047683716 0 -1 0 1 0
-2.700000047683716 -1.3411045607369942e-9 2.200000047683716 0 0 1 0 1
2.700000047683716 -1.3411045607369942e-9 2.200000047683716 0 0 1 1 1
-2.700000047683716 -0.11999999731779099 2.200000047683716 0 0 1 0 0
2.700000047683716 -0.11999999731779099 2.200000047683716 0 0 1 1 0
2.700000047683716 -1.3411045607369942e-9 -2.200000047683716 0 0 -1 0 1
-2.700000047683716 -1.3411045607369942e-9 -2.200000047683716 0 0 -1 1 1
2.700000047683716 -0.11999999731779099 -2.200000047683716 0 0 -1 0 0
-2.700000047683716 -0.11999999731779099 -2.200000047683716 0 0 -1 1 0
2.700000047683716 2.700000047683716 2.200000047683716 1 0 0 0 1
2.700000047683716 2.700000047683716 -2.200000047683716 1 0 0 1 1
2.700000047683716 2.5999999046325684 2.200000047683716 1 0 0 0 0
2.700000047683716 2.5999999046325684 -2.200000047683716 1 0 0 1 0
-2.700000047683716 2.700000047683716 -2.200000047683716 -1 0 0 0 1
-2.700000047683716 2.700000047683716 2.200000047683716 -1 0 0 1 1
-2.700000047683716 2.5999999046325684 -2.200000047683716 -1 0 0 0 0
-2.700000047683716 2.5999999046325684 2.200000047683716 -1 0 0 1 0
-2.700000047683716 2.700000047683716 -2.200000047683716 0 1 0 0 1
2.700000047683716 2.700000047683716 -2.200000047683716 0 1 0 1 1
-2.700000047683716 2.700000047683716 2.200000047683716 0 1 0 0 0
2.700000047683716 2.700000047683716 2.200000047683716 0 1 0 1 0
-2.700000047683716 2.5999999046325684 2.200000047683716 0 -1 0 0 1
2.700000047683716 2.5999999046325684 2.200000047683716 0 -1 0 1 1
-2.700000047683716 2.5999999046325684 -2.200000047683716 0 -1 0 0 0
2.700000047683716 2.5999999046325684 -2.200000047683716 0 -1 0 1 0
-2.700000047683716 2.700000047683716 2.200000047683716 0 0 1 0 1
2.700000047683716 2.700000047683716 2.200000047683716 0 0 1 1 1
-2.700000047683716 2.5999999046325684 2.200000047683716 0 0 1 0 0
2.700000047683716 2.5999999046325684 2.200000047683716 0 0 1 1 0
2.700000047683716 2.700000047683716 -2.200000047683716 0 0 -1 0 1
-2.700000047683716 2.700000047683716 -2.200000047683716 0 0 -1 1 1
2.700000047683716 2.5999999046325684 -2.200000047683716 0 0 -1 0 0
-2.700000047683716 2.5999999046325684 -2.200000047683716 0 0 -1 1 0
2.700000047683716 2.5999999046325684 -2 1 0 0 0 1
2.700000047683716 2.5999999046325684 -2.200000047683716 1 0 0 1 1
2.700000047683716 4.7683716530855236e-8 -2 1 0 0 0 0
2.700000047683716 4.7683716530855236e-8 -2.200000047683716 1 0 0 1 0
-2.700000047683716 2.5999999046325684 -2.200000047683716 -1 0 0 0 1
-2.700000047683716 2.5999999046325684 -2 -1 0 0 1 1
-2.700000047683716 4.7683716530855236e-8 -2.200000047683716 -1 0 0 0 0
-2.700000047683716 4.7683716530855236e-8 -2 -1 0 0 1 0
-2.700000047683716 2.5999999046325684 -2.200000047683716 0 1 0 0 1
2.700000047683716 2.5999999046325684 -2.200000047683716 0 1 0 1 1
-2.700000047683716 2.5999999046325684 -2 0 1 0 0 0
2.700000047683716 2.5999999046325684 -2 0 1 0 1 0
-2.700000047683716 4.7683716530855236e-8 -2 0 -1 0 0 1
2.700000047683716 4.7683716530855236e-8 -2 0 -1 0 1 1
-2.700000047683716 4.7683716530855236e-8 -2.200000047683716 0 -1 0 0 0
2.700000047683716 4.7683716530855236e-8 -2.200000047683716 0 -1 0 1 0
-2.700000047683716 2.5999999046325684 -2 0 0 1 0 1
2.700000047683716 2.5999999046325684 -2 0 0 1 1 1
-2.700000047683716 4.7683716530855236e-8 -2 0 0 1 0 0
2.700000047683716 4.7683716530855236e-8 -2 0 0 1 1 0
2.700000047683716 2.5999999046325684 -2.200000047683716 0 0 -1 0 1
-2.700000047683716 2.5999999046325684 -2.200000047683716 0 0 -1 1 1
2.700000047683716 4.7683716530855236e-8 -2.200000047683716 0 0 -1 0 0
-2.700000047683716 4.7683716530855236e-8 -2.200000047683716 0 0 -1 1 0
-1.5 2.5999999046325684 2.200000047683716 1 0 0 0 1
-1.5 2.5999999046325684 2 1 0 0 1 1
-1.5 4.7683716530855236e-8 2.200000047683716 1 0 0 0 0
-1.5 4.7683716530855236e-8 2 1 0 0 1 0
-2.700000047683716 2.5999999046325684 2 -1 0 0 0 1
-2.700000047683716 2.5999999046325684 2.200000047683716 -1 0 0 1 1
-2.700000047683716 4.7683716530855236e-8 2 -1 0 0 0 0
-2.700000047683716 4.7683716530855236e-8 2.200000047683716 -1 0 0 1 0
-2.700000047683716 2.5999999046325684 2 0 1 0 0 1
-1.5 2.5999999046325684 2 0 1 0 1 1
-2.700000047683716 2.5999999046325684 2.200000047683716 0 1 0 0 0
-1.5 2.5999999046325684 2.200000047683716 0 1 0 1 0
-2.700000047683716 4.7683716530855236e-8 2.200000047683716 0 -1 0 0 1
-1.5 4.7683716530855236e-8 2.200000047683716 0 -1 0 1 1
-2.700000047683716 4.7683716530855236e-8 2 0 -1 0 0 0
-1.5 4.7683716530855236e-8 2 0 -1 0 1 0
-2.700000047683716 2.5999999046325684 2.200000047683716 0 0 1 0 1
-1.5 2.5999999046325684 2.200000047683716 0 0 1 1 1
-2.700000047683716 4.7683716530855236e-8 2.200000047683716 0 0 1 0 0
-1.5 4.7683716530855236e-8 2.200000047683716 0 0 1 1 0
-1.5 2.5999999046325684 2 0 0 -1 0 1
-2.700000047683716 2.5999999046325684 2 0 0 -1 1 1
-1.5 4.7683716530855236e-8 2 0 0 -1 0 0
-2.700000047683716 4.7683716530855236e-8 2 0 0 -1 1 0
2.700000047683716 2.5999999046325684 2.200000047683716 1 0 0 0 1
2.700000047683716 2.5999999046325684 2 1 0 0 1 1
2.700000047683716 4.7683716530855236e-8 2.200000047683716 1 0 0 0 0
2.700000047683716 4.7683716530855236e-8 2 1 0 0 1 0
-0.5 2.5999999046325684 2 -1 0 0 0 1
-0.5 2.5999999046325684 2.200000047683716 -1 0 0 1 1
-0.5 4.7683716530855236e-8 2 -1 0 0 0 0
-0.5 4.7683716530855236e-8 2.200000047683716 -1 0 0 1 0
-0.5 2.5999999046325684 2 0 1 0 0 1
2.700000047683716 2.5999999046325684 2 0 1 0 1 1
-0.5 2.5999999046325684 2.200000047683716 0 1 0 0 0
2.700000047683716 2.5999999046325684 2.200000047683716 0 1 0 1 0
-0.5 4.7683716530855236e-8 2.200000047683716 0 -1 0 0 1
2.700000047683716 4.7683716530855236e-8 2.200000047683716 0 -1 0 1 1
-0.5 4.7683716530855236e-8 2 0 -1 0 0 0
2.700000047683716 4.7683716530855236e-8 2 0 -1 0 1 0
-0.5 2.5999999046325684 2.200000047683716 0 0 1 0 1
2.700000047683716 2.5999999046325684 2.200000047683716 0 0 1 1 1
-0.5 4.7683716530855236e-8 2.200000047683716 0 0 1 0 0
2.700000047683716 4.7683716530855236e-8 2.200000047683716 0 0 1 1 0
2.700000047683716 2.5999999046325684 2 0 0 -1 0 1
-0.5 2.5999999046325684 2 0 0 -1 1 1
2.700000047683716 4.7683716530855236e-8 2 0 0 -1 0 0
-0.5 4.7683716530855236e-8 2 0 0 -1 1 0
-0.5 2.5999999046325684 2.200000047683716 1 0 0 0 1
-0.5 2.5999999046325684 2 1 0 0 1 1
-0.5 2.049999952316284 2.200000047683716 1 0 0 0 0
-0.5 2.049999952316284 2 1 0 0 1 0
-1.5 2.5999999046325684 2 -1 0 0 0 1
-1.5 2.5999999046325684 2.200000047683716 -1 0 0 1 1
-1.5 2.049999952316284 2 -1 0 0 0 0
-1.5 2.049999952316284 2.200000047683716 -1 0 0 1 0
-1.5 2.5999999046325684 2 0 1 0 0 1
-0.5 2.5999999046325684 2 0 1 0 1 1
-1.5 2.5999999046325684 2.200000047683716 0 1 0 0 0
-0.5 2.5999999046325684 2.200000047683716 0 1 0 1 0
-1.5 2.049999952316284 2.200000047683716 0 -1 0 0 1
-0.5 2.049999952316284 2.200000047683716 0 -1 0 1 1
-1.5 2.049999952316284 2 0 -1 0 0 0
-0.5 2.049999952316284 2 0 -1 0 1 0
-1.5 2.5999999046325684 2.200000047683716 0 0 1 0 1
-0.5 2.5999999046325684 2.200000047683716 0 0 1 1 1
-1.5 2.049999952316284 2.200000047683716 0 0 1 0 0
-0.5 2.049999952316284 2.200000047683716 0 0 1 1 0
-0.5 2.5999999046325684 2 0 0 -1 0 1
-1.5 2.5999999046325684 2 0 0 -1 1 1
-0.5 2.049999952316284 2 0 0 -1 0 0
-1.5 2.049999952316284 2 0 0 -1 1 0
2.700000047683716 0.8999999761581421 1.25 1 0 0 0 1
2.700000047683716 0.8999999761581421 -0.25 1 0 0 1 1
2.700000047683716 1.1920929132713809e-8 1.25 1 0 0 0 0
2.700000047683716 1.1920929132713809e-8 -0.25 1 0 0 1 0
2.5 0.8999999761581421 -0.25 -1 0 0 0 1
2.5 0.8999999761581421 1.25 -1 0 0 1 1
2.5 1.1920929132713809e-8 -0.25 -1 0 0 0 0
2.5 1.1920929132713809e-8 1.25 -1 0 0 1 0
2.5 0.8999999761581421 -0.25 0 1 0 0 1
2.700000047683716 0.8999999761581421 -0.25 0 1 0 1 1
2.5 0.8999999761581421 1.25 0 1 0 0 0
2.700000047683716 0.8999999761581421 1.25 0 1 0 1 0
2.5 1.1920929132713809e-8 1.25 0 -1 0 0 1
2.700000047683716 1.1920929132713809e-8 1.25 0 -1 0 1 1
2.5 1.1920929132713809e-8 -0.25 0 -1 0 0 0
2.700000047683716 1.1920929132713809e-8 -0.25 0 -1 0 1 0
2.5 0.8999999761581421 1.25 0 0 1 0 1
2.700000047683716 0.8999999761581421 1.25 0 0 1 1 1
2.5 1.1920929132713809e-8 1.25 0 0 1 0 0
2.700000047683716 1.1920929132713809e-8 1.25 0 0 1 1 0
2.700000047683716 0.8999999761581421 -0.25 0 0 -1 0 1
2.5 0.8999999761581421 -0.25 0 0 -1 1 1
2.700000047683716 1.1920929132713809e-8 -0.25 0 0 -1 0 0
2.5 1.1920929132713809e-8 -0.25 0 0 -1 1 0
2.700000047683716 2.5999999046325684 1.25 1 0 0 0 1
2.700000047683716 2.5999999046325684 -0.25 1 0 0 1 1
2.700000047683716 2.0999999046325684 1.25 1 0 0 0 0
2.700000047683716 2.0999999046325684 -0.25 1 0 0 1 0
2.5 2.5999999046325684 -0.25 -1 0 0 0 1
2.5 2.5999999046325684 1.25 -1 0 0 1 1
2.5 2.0999999046325684 -0.25 -1 0 0 0 0
2.5 2.0999999046325684 1.25 -1 0 0 1 0
2.5 2.5999999046325684 -0.25 0 1 0 0 1
2.700000047683716 2.5999999046325684 -0.25 0 1 0 1 1
2.5 2.5999999046325684 1.25 0 1 0 0 0
2.700000047683716 2.5999999046325684 1.25 0 1 0 1 0
2.5 2.0999999046325684 1.25 0 -1 0 0 1
2.700000047683716 2.0999999046325684 1.25 0 -1 0 1 1
2.5 2.0999999046325684 -0.25 0 -1 0 0 0
2.700000047683716 2.0999999046325684 -0.25 0 -1 0 1 0
2.5 2.5999999046325684 1.25 0 0 1 0 1
2.700000047683716 2.5999999046325684 1.25 0 0 1 1 1
2.5 2.0999999046325684 1.25 0 0 1 0 0
2.700000047683716 2.0999999046325684 1.25 0 0 1 1 0
2.700000047683716 2.5999999046325684 -0.25 0 0 -1 0 1
2.5 2.5999999046325684 -0.25 0 0 -1 1 1
2.700000047683716 2.0999999046325684 -0.25 0 0 -1 0 0
2.5 2.0999999046325684 -0.25 0 0 -1 1 0
2.700000047683716 2.5999999046325684 2.200000047683716 1 0 0 0 1
2.700000047683716 2.5999999046325684 1.25 1 0 0 1 1
2.700000047683716 4.7683716530855236e-8 2.200000047683716 1 0 0 0 0
2.700000047683716 4.7683716530855236e-8 1.25 1 0 0 1 0
2.5 2.5999999046325684 1.25 -1 0 0 0 1
2.5 2.5999999046325684 2.200000047683716 -1 0 0 1 1
2.5 4.7683716530855236e-8 1.25 -1 0 0 0 0
2.5 4.7683716530855236e-8 2.200000047683716 -1 0 0 1 0
2.5 2.5999999046325684 1.25 0 1 0 0 1
2.700000047683716 2.5999999046325684 1.25 0 1 0 1 1
2.5 2.5999999046325684 2.200000047683716 0 1 0 0 0
2.700000047683716 2.5999999046325684 2.200000047683716 0 1 0 1 0
2.5 4.7683716530855236e-8 2.200000047683716 0 -1 0 0 1
2.700000047683716 4.7683716530855236e-8 2.200000047683716 0 -1 0 1 1
2.5 4.7683716530855236e-8 1.25 0 -1 0 0 0
2.700000047683716 4.7683716530855236e-8 1.25 0 -1 0 1 0
2.5 2.5999999046325684 2.200000047683716 0 0 1 0 1
2.700000047683716 2.5999999046325684 2.200000047683716 0 0 1 1 1
2.5 4.7683716530855236e-8 2.200000047683716 0 0 1 0 0
2.700000047683716 4.7683716530855236e-8 2.200000047683716 0 0 1 1 0
2.700000047683716 2.5999999046325684 1.25 0 0 -1 0 1
2.5 2.5999999046325684 1.25 0 0 -1 1 1
2.700000047683716 4.7683716530855236e-8 1.25 0 0 -1 0 0
2.5 4.7683716530855236e-8 1.25 0 0 -1 1 0
2.700000047683716 2.5999999046325684 -0.2499999701976776 1 0 0 0 1
2.700000047683716 2.5999999046325684 -2.200000047683716 1 0 0 1 1
2.700000047683716 4.7683716530855236e-8 -0.2499999701976776 1 0 0 0 0
2.700000047683716 4.7683716530855236e-8 -2.200000047683716 1 0 0 1 0
2.5 2.5999999046325684 -2.200000047683716 -1 0 0 0 1
2.5 2.5999999046325684 -0.2499999701976776 -1 0 0 1 1
2.5 4.7683716530855236e-8 -2.200000047683716 -1 0 0 0 0
2.5 4.7683716530855236e-8 -0.2499999701976776 -1 0 0 1 0
2.5 2.5999999046325684 -2.200000047683716 0 1 0 0 1
2.700000047683716 2.5999999046325684 -2.200000047683716 0 1 0 1 1
2.5 2.5999999046325684 -0.2499999701976776 0 1 0 0 0
2.700000047683716 2.5999999046325684 -0.2499999701976776 0 1 0 1 0
2.5 4.7683716530855236e-8 -0.2499999701976776 0 -1 0 0 1
2.700000047683716 4.7683716530855236e-8 -0.2499999701976776 0 -1 0 1 1
2.5 4.7683716530855236e-8 -2.200000047683716 0 -1 0 0 0
2.700000047683716 4.7683716530855236e-8 -2.200000047683716 0 -1 0 1 0
2.5 2.5999999046325684 -0.2499999701976776 0 0 1 0 1
2.700000047683716 2.5999999046325684 -0.2499999701976776 0 0 1 1 1
2.5 4.7683716530855236e-8 -0.2499999701976776 0 0 1 0 0
2.700000047683716 4.7683716530855236e-8 -0.2499999701976776 0 0 1 1 0
2.700000047683716 2.5999999046325684 -2.200000047683716 0 0 -1 0 1
2.5 2.5999999046325684 -2.200000047683716 0 0 -1 1 1
2.700000047683716 4.7683716530855236e-8 -2.200000047683716 0 0 -1 0 0
2.5 4.7683716530855236e-8 -2.200000047683716 0 0 -1 1 0
-2.5 2.5999999046325684 2.200000047683716 1 0 0 0 1
-2.5 2.5999999046325684 -2.200000047683716 1 0 0 1 1
-2.5 4.7683716530855236e-8 2.200000047683716 1 0 0 0 0
-2.5 4.7683716530855236e-8 -2.200000047683716 1 0 0 1 0
-2.700000047683716 2.5999999046325684 -2.200000047683716 -1 0 0 0 1
-2.700000047683716 2.5999999046325684 2.200000047683716 -1 0 0 1 1
-2.700000047683716 4.7683716530855236e-8 -2.200000047683716 -1 0 0 0 0
-2.700000047683716 4.7683716530855236e-8 2.200000047683716 -1 0 0 1 0
-2.700000047683716 2.5999999046325684 -2.200000047683716 0 1 0 0 1
-2.5 2.5999999046325684 -2.200000047683716 0 1 0 1 1
-2.700000047683716 2.5999999046325684 2.200000047683716 0 1 0 0 0
-2.5 2.5999999046325684 2.200000047683716 0 1 0 1 0
-2.700000047683716 4.7683716530855236e-8 2.200000047683716 0 -1 0 0 1
-2.5 4.7683716530855236e-8 2.200000047683716 0 -1 0 1 1
-2.700000047683716 4.7683716530855236e-8 -2.200000047683716 0 -1 0 0 0
-2.5 4.7683716530855236e-8 -2.200000047683716 0 -1 0 1 0
-2.700000047683716 2.5999999046325684 2.200000047683716 0 0 1 0 1
-2.5 2.5999999046325684 2.200000047683716 0 0 1 1 1
-2.700000047683716 4.7683716530855236e-8 2.200000047683716 0 0 1 0 0
-2.5 4.7683716530855236e-8 2.200000047683716 0 0 1 1 0
-2.5 2.5999999046325684 -2.200000047683716 0 0 -1 0 1
-2.700000047683716 2.5999999046325684 -2.200000047683716 0 0 -1 1 1
-2.5 4.7683716530855236e-8 -2.200000047683716 0 0 -1 0 0
-2.700000047683716 4.7683716530855236e-8 -2.200000047683716 0 0 -1 1 0
-0.7999999523162842 0.7900000214576721 -0.4000000059604645 1 0 0 0 1
-0.7999999523162842 0.7900000214576721 -1.2000000476837158 1 0 0 1 1
-0.7999999523162842 0.7099999785423279 -0.4000000059604645 1 0 0 0 0
-0.7999999523162842 0.7099999785423279 -1.2000000476837158 1 0 0 1 0
-2 0.7900000214576721 -1.2000000476837158 -1 0 0 0 1
-2 0.7900000214576721 -0.4000000059604645 -1 0 0 1 1
-2 0.7099999785423279 -1.2000000476837158 -1 0 0 0 0
-2 0.7099999785423279 -0.4000000059604645 -1 0 0 1 0
-2 0.7900000214576721 -1.2000000476837158 0 1 0 0 1
-0.7999999523162842 0.7900000214576721 -1.2000000476837158 0 1 0 1 1
-2 0.7900000214576721 -0.4000000059604645 0 1 0 0 0
-0.7999999523162842 0.7900000214576721 -0.4000000059604645 0 1 0 1 0
-2 0.7099999785423279 -0.4000000059604645 0 -1 0 0 1
-0.7999999523162842 0.7099999785423279 -0.4000000059604645 0 -1 0 1 1
-2 0.7099999785423279 -1.2000000476837158 0 -1 0 0 0
-0.7999999523162842 0.7099999785423279 -1.2000000476837158 0 -1 0 1 0
-2 0.7900000214576721 -0.4000000059604645 0 0 1 0 1
-0.7999999523162842 0.7900000214576721 -0.4000000059604645 0 0 1 1 1
-2 0.7099999785423279 -0.4000000059604645 0 0 1 0 0
-0.7999999523162842 0.7099999785423279 -0.4000000059604645 0 0 1 1 0
-0.7999999523162842 0.7900000214576721 -1.2000000476837158 0 0 -1 0 1
-2 0.7900000214576721 -1.2000000476837158 0 0 -1 1 1
-0.7999999523162842 0.7099999785423279 -1.2000000476837158 0 0 -1 0 0
-2 0.7099999785423279 -1.2000000476837158 0 0 -1 1 0
-1.9199999570846558 0.75 -1.1200000047683716 1 0 0 0 1
-1.9199999570846558 0.75 -1.1799999475479126 1 0 0 1 1
-1.9199999570846558 0 -1.1200000047683716 1 0 0 0 0
-1.9199999570846558 0 -1.1799999475479126 1 0 0 1 0
-1.9800000190734863 0.75 -1.1799999475479126 -1 0 0 0 1
-1.9800000190734863 0.75 -1.1200000047683716 -1 0 0 1 1
-1.9800000190734863 0 -1.1799999475479126 -1 0 0 0 0
-1.9800000190734863 0 -1.1200000047683716 -1 0 0 1 0
-1.9800000190734863 0.75 -1.1799999475479126 0 1 0 0 1
-1.9199999570846558 0.75 -1.1799999475479126 0 1 0 1 1
-1.9800000190734863 0.75 -1.1200000047683716 0 1 0 0 0
-1.9199999570846558 0.75 -1.1200000047683716 0 1 0 1 0
-1.9800000190734863 0 -1.1200000047683716 0 -1 0 0 1
-1.9199999570846558 0 -1.1200000047683716 0 -1 0 1 1
-1.9800000190734863 0 -1.1799999475479126 0 -1 0 0 0
-1.9199999570846558 0 -1.1799999475479126 0 -1 0 1 0
-1.9800000190734863 0.75 -1.1200000047683716 0 0 1 0 1
-1.9199999570846558 0.75 -1.1200000047683716 0 0 1 1 1
-1.9800000190734863 0 -1.1200000047683716 0 0 1 0 0
-1.9199999570846558 0 -1.1200000047683716 0 0 1 1 0
-1.9199999570846558 0.75 -1.1799999475479126 0 0 -1 0 1
-1.9800000190734863 0.75 -1.1799999475479126 0 0 -1 1 1
-1.9199999570846558 0 -1.1799999475479126 0 0 -1 0 0
-1.9800000190734863 0 -1.1799999475479126 0 0 -1 1 0
-0.8199999928474426 0.75 -1.1200000047683716 1 0 0 0 1
-0.8199999928474426 0.75 -1.1799999475479126 1 0 0 1 1
-0.8199999928474426 0 -1.1200000047683716 1 0 0 0 0
-0.8199999928474426 0 -1.1799999475479126 1 0 0 1 0
-0.8799999952316284 0.75 -1.1799999475479126 -1 0 0 0 1
-0.8799999952316284 0.75 -1.1200000047683716 -1 0 0 1 1
-0.8799999952316284 0 -1.1799999475479126 -1 0 0 0 0
-0.8799999952316284 0 -1.1200000047683716 -1 0 0 1 0
-0.8799999952316284 0.75 -1.1799999475479126 0 1 0 0 1
-0.8199999928474426 0.75 -1.1799999475479126 0 1 0 1 1
-0.8799999952316284 0.75 -1.1200000047683716 0 1 0 0 0
-0.8199999928474426 0.75 -1.1200000047683716 0 1 0 1 0
-0.8799999952316284 0 -1.1200000047683716 0 -1 0 0 1
-0.8199999928474426 0 -1.1200000047683716 0 -1 0 1 1
-0.8799999952316284 0 -1.1799999475479126 0 -1 0 0 0
-0.8199999928474426 0 -1.1799999475479126 0 -1 0 1 0
-0.8799999952316284 0.75 -1.1200000047683716 0 0 1 0 1
-0.8199999928474426 0.75 -1.1200000047683716 0 0 1 1 1
-0.8799999952316284 0 -1.1200000047683716 0 0 1 0 0
-0.8199999928474426 0 -1.1200000047683716 0 0 1 1 0
-0.8199999928474426 0.75 -1.1799999475479126 0 0 -1 0 1
-0.8799999952316284 0.75 -1.1799999475479126 0 0 -1 1 1
-0.8199999928474426 0 -1.1799999475479126 0 0 -1 0 0
-0.8799999952316284 0 -1.1799999475479126 0 0 -1 1 0
-1.9199999570846558 0.75 -0.41999998688697815 1 0 0 0 1
-1.9199999570846558 0.75 -0.47999998927116394 1 0 0 1 1
-1.9199999570846558 0 -0.41999998688697815 1 0 0 0 0
-1.9199999570846558 0 -0.47999998927116394 1 0 0 1 0
-1.9800000190734863 0.75 -0.47999998927116394 -1 0 0 0 1
-1.9800000190734863 0.75 -0.41999998688697815 -1 0 0 1 1
-1.9800000190734863 0 -0.47999998927116394 -1 0 0 0 0
-1.9800000190734863 0 -0.41999998688697815 -1 0 0 1 0
-1.9800000190734863 0.75 -0.47999998927116394 0 1 0 0 1
-1.9199999570846558 0.75 -0.47999998927116394 0 1 0 1 1
-1.9800000190734863 0.75 -0.41999998688697815 0 1 0 0 0
-1.9199999570846558 0.75 -0.41999998688697815 0 1 0 1 0
-1.9800000190734863 0 -0.41999998688697815 0 -1 0 0 1
-1.9199999570846558 0 -0.41999998688697815 0 -1 0 1 1
-1.9800000190734863 0 -0.47999998927116394 0 -1 0 0 0
-1.9199999570846558 0 -0.47999998927116394 0 -1 0 1 0
-1.9800000190734863 0.75 -0.41999998688697815 0 0 1 0 1
-1.9199999570846558 0.75 -0.41999998688697815 0 0 1 1 1
-1.9800000190734863 0 -0.41999998688697815 0 0 1 0 0
-1.9199999570846558 0 -0.41999998688697815 0 0 1 1 0
-1.9199999570846558 0.75 -0.47999998927116394 0 0 -1 0 1
-1.9800000190734863 0.75 -0.47999998927116394 0 0 -1 1 1
-1.9199999570846558 0 -0.47999998927116394 0 0 -1 0 0
-1.9800000190734863 0 -0.47999998927116394 0 0 -1 1 0
-0.8199999928474426 0.75 -0.41999998688697815 1 0 0 0 1
-0.8199999928474426 0.75 -0.47999998927116394 1 0 0 1 1
-0.8199999928474426 0 -0.41999998688697815 1 0 0 0 0
-0.8199999928474426 0 -0.47999998927116394 1 0 0 1 0
-0.8799999952316284 0.75 -0.47999998927116394 -1 0 0 0 1
-0.8799999952316284 0.75 -0.41999998688697815 -1 0 0 1 1
-0.8799999952316284 0 -0.47999998927116394 -1 0 0 0 0
-0.8799999952316284 0 -0.41999998688697815 -1 0 0 1 0
-0.8799999952316284 0.75 -0.47999998927116394 0 1 0 0 1
-0.8199999928474426 0.75 -0.47999998927116394 0 1 0 1 1
-0.8799999952316284 0.75 -0.41999998688697815 0 1 0 0 0
-0.8199999928474426 0.75 -0.41999998688697815 0 1 0 1 0
-0.8799999952316284 0 -0.41999998688697815 0 -1 0 0 1
-0.8199999928474426 0 -0.41999998688697815 0 -1 0 1 1
-0.8799999952316284 0 -0.47999998927116394 0 -1 0 0 0
-0.8199999928474426 0 -0.47999998927116394 0 -1 0 1 0
-0.8799999952316284 0.75 -0.41999998688697815 0 0 1 0 1
-0.8199999928474426 0.75 -0.41999998688697815 0 0 1 1 1
-0.8799999952316284 0 -0.41999998688697815 0 0 1 0 0
-0.8199999928474426 0 -0.41999998688697815 0 0 1 1 0
-0.8199999928474426 0.75 -0.47999998927116394 0 0 -1 0 1
-0.8799999952316284 0.75 -0.47999998927116394 0 0 -1 1 1
-0.8199999928474426 0 -0.47999998927116394 0 0 -1 0 0
-0.8799999952316284 0 -0.47999998927116394 0 0 -1 1 0
3 0 2 1
3 2 3 1
3 4 6 5
3 6 7 5
3 8 10 9
3 10 11 9
3 12 14 13
3 14 15 13
3 16 18 17
3 18 19 17
3 20 22 21
3 22 23 21
3 24 26 25
3 26 27 25
3 28 30 29
3 30 31 29
3 32 34 33
3 34 35 33
3 36 38 37
3 38 39 37
3 40 42 41
3 42 43 41
3 44 46 45
3 46 47 45
3 48 50 49
3 50 51 49
3 52 54 53
3 54 55 53
3 56 58 57
3 58 59 57
3 60 62 61
3 62 63 61
3 64 66 65
3 66 67 65
3 68 70 69
3 70 71 69
3 72 74 73
3 74 75 73
3 76 78 77
3 78 79 77
3 80 82 81
3 82 83 81
3 84 86 85
3 86 87 85
3 88 90 89
3 90 91 89
3 92 94 93
3 94 95 93
3 96 98 97
3 98 99 97
3 100 102 101
3 102 103 101
3 104 106 105
3 106 107 105
3 108 110 109
3 110 111 109
3 112 114 113
3 114 115 113
3 116 118 117
3 118 119 117
3 120 122 121
3 122 123 121
3 124 126 125
3 126 127 125
3 128 130 129
3 130 131 129
3 132 134 133
3 134 135 133
3 136 138 137
3 138 139 137
3 140 142 141
3 142 143 141
3 144 146 145
3 146 147 145
3 148 150 149
3 150 151 149
3 152 154 153
3 154 155 153
3 156 158 157
3 158 159 157
3 160 162 161
3 162 163 161
3 164 166 165
3 166 167 165
3 168 170 169
3 170 171 169
3 172 174 173
3 174 175 173
3 176 178 177
3 178 179 177
3 180 182 181
3 182 183 181
3 184 186 185
3 186 187 185
3 188 190 189
3 190 191 189
3 192 194 193
3 194 195 193
3 196 198 197
3 198 199 197
3 200 202 201
3 202 203 201
3 204 206 205
3 206 207 205
3 208 210 209
3 210 211 209
3 212 214 213
3 214 215 213
3 216 218 217
3 218 219 217
3 220 222 221
3 222 223 221
3 224 226 225
3 226 227 225
3 228 230 229
3 230 231 229
3 232 234 233
3 234 235 233
3 236 238 237
3 238 239 237
3 240 242 241
3 242 243 241
3 244 246 245
3 246 247 245
3 248 250 249
3 250 251 249
3 252 254 253
3 254 255 253
3 256 258 257
3 258 259 257
3 260 262 261
3 262 263 261
3 264 266 265
3 266 267 265
3 268 270 269
3 270 271 269
3 272 274 273
3 274 275 273
3 276 278 277
3 278 279 277
3 280 282 281
3 282 283 281
3 284 286 285
3 286 287 285
3 288 290 289
3 290 291 289
3 292 294 293
3 294 295 293
3 296 298 297
3 298 299 297
3 300 302 301
3 302 303 301
3 304 306 305
3 306 307 305
3 308 310 309
3 310 311 309
3 312 314 313
3 314 315 313
3 316 318 317
3 318 319 317
3 320 322 321
3 322 323 321
3 324 326 325
3 326 327 325
3 328 330 329
3 330 331 329
3 332 334 333
3 334 335 333
3 336 338 337
3 338 339 337
3 340 342 341
3 342 343 341
3 344 346 345
3 346 347 345
3 348 350 349
3 350 351 349
3 352 354 353
3 354 355 353
3 356 358 357
3 358 359 357
3 360 362 361
3 362 363 361
3 364 366 365
3 366 367 365
3 368 370 369
3 370 371 369
3 372 374 373
3 374 375 373
3 376 378 377
3 378 379 377
3 380 382 381
3 382 383 381

